<svg id="visual" viewBox="0 0 900 900" width="900" height="900" xmlns="http://www.w3.org/2000/svg" xmlns:xlink="http://www.w3.org/1999/xlink" version="1.1"><path d="M0 352L53 343L106 352L159 334L212 379L265 352L318 334L371 334L424 370L476 379L529 325L582 334L635 361L688 370L741 334L794 325L847 379L900 370L900 0L847 0L794 0L741 0L688 0L635 0L582 0L529 0L476 0L424 0L371 0L318 0L265 0L212 0L159 0L106 0L53 0L0 0Z" fill="#e6e7e9"></path><path d="M0 703L53 667L106 703L159 703L212 703L265 676L318 667L371 676L424 676L476 703L529 694L582 685L635 694L688 667L741 685L794 676L847 703L900 667L900 368L847 377L794 323L741 332L688 368L635 359L582 332L529 323L476 377L424 368L371 332L318 332L265 350L212 377L159 332L106 350L53 341L0 350Z" fill="#93CAFF"></path><path d="M0 901L53 901L106 901L159 901L212 901L265 901L318 901L371 901L424 901L476 901L529 901L582 901L635 901L688 901L741 901L794 901L847 901L900 901L900 665L847 701L794 674L741 683L688 665L635 692L582 683L529 692L476 701L424 674L371 674L318 665L265 674L212 701L159 701L106 701L53 665L0 701Z" fill="dodgerblue"></path></svg>